<svg xmlns="http://www.w3.org/2000/svg" viewBox="0 0 49.31 49.31"><defs><style>.cls-1{fill:#fff;opacity:0.67;}.cls-2,.cls-3{fill:none;stroke:#4c4c4c;stroke-width:0.33px;}.cls-2{stroke-miterlimit:10;}.cls-3{stroke-linecap:round;stroke-linejoin:round;}</style></defs><title>drone</title><g id="Layer_2" data-name="Layer 2"><g id="_15px_padding" data-name="15px padding"><circle class="cls-1" cx="24.65" cy="24.65" r="24.65"/><polygon class="cls-2" points="11.52 22.47 9.43 22.47 9.43 23.55 9.03 23.55 9.03 25.34 12.06 25.34 12.06 24.95 21.61 24.95 21.61 28.18 23.36 29.93 27.25 29.93 28.81 28.09 28.81 24.9 38.2 24.9 38.2 25.31 41.2 25.31 41.2 23.62 40.87 23.62 40.87 22.59 38.84 22.59 38.84 23.31 38.26 23.31 38.26 23.76 28.81 23.76 28.81 21.31 26.86 18.84 23.81 18.84 21.75 21.37 21.75 23.9 12.08 23.9 12.08 23.4 11.53 23.4 11.52 22.47"/><polyline class="cls-2" points="12.47 25.06 13.25 36.29 13.86 36.29 17.61 31.34 17.74 25.11"/><polyline class="cls-2" points="13.61 24.98 13.64 35.26 16.75 31.15 16.75 25.09"/><polyline class="cls-2" points="37.78 24.98 37.23 36.29 36.62 36.29 32.87 31.34 32.87 25.01"/><polyline class="cls-2" points="36.84 24.95 36.84 35.26 33.59 31.15 33.59 25.04"/><polyline class="cls-2" points="17.64 23.9 17.64 20.7 21.67 22.56"/><polyline class="cls-2" points="16.81 23.9 16.81 19.79 13.86 19.79 13.86 18.12 14.36 18.12 14.36 17.12 16.28 17.12 16.28 17.98 16.81 17.98 16.81 19.15 21.61 21.43"/><polyline class="cls-2" points="32.78 23.73 32.78 20.7 28.78 22.54"/><polyline class="cls-2" points="33.62 23.73 33.62 19.79 36.56 19.79 36.56 18.12 36.06 18.12 36.06 17.12 34.14 17.12 34.14 17.98 33.62 17.98 33.62 19.15 28.89 21.4"/><path class="cls-2" d="M25.14,33C24,33,24,31.65,24,31.65V28.09a1.22,1.22,0,1,1,2.44,0V32S26.46,33,25.14,33Z"/><circle class="cls-2" cx="25.33" cy="35.43" r="0.83"/><circle class="cls-2" cx="25.31" cy="35.01" r="1.96"/><line class="cls-2" x1="24.06" y1="31.01" x2="26.5" y2="31.01"/><circle class="cls-2" cx="39.76" cy="21.98" r="0.61"/><circle class="cls-2" cx="35" cy="16.44" r="0.61"/><circle class="cls-2" cx="15.33" cy="16.44" r="0.61"/><circle class="cls-2" cx="10.53" cy="21.83" r="0.61"/><path class="cls-3" d="M16,16.27h7.31a17.37,17.37,0,0,1-6.7.49L16,16.56Z"/><path class="cls-3" d="M14.67,16.27H7.36a17.37,17.37,0,0,0,6.7.49l.67-.19Z"/><path class="cls-3" d="M11.24,21.73h7.31a17.37,17.37,0,0,1-6.7.49L11.18,22Z"/><path class="cls-3" d="M9.88,21.73H2.57a17.37,17.37,0,0,0,6.7.49L9.93,22Z"/><path class="cls-3" d="M40.45,21.73h7.31a17.37,17.37,0,0,1-6.7.49L40.39,22Z"/><path class="cls-3" d="M39.09,21.73H31.78a17.37,17.37,0,0,0,6.7.49l.67-.19Z"/><path class="cls-3" d="M35.74,16.27H43a17.37,17.37,0,0,1-6.7.49l-.67-.19Z"/><path class="cls-3" d="M34.38,16.27H27.07a17.37,17.37,0,0,0,6.7.49l.67-.19Z"/></g></g></svg>